<svg width="16" height="14" viewBox="0 0 16 14" fill="none" xmlns="http://www.w3.org/2000/svg">
<path d="M15.584 1.57761C15.1355 2.30072 14.575 2.90332 14.0144 3.38539C14.0144 3.50591 14.0144 3.62643 14.0144 3.86747C14.0144 4.83162 13.9023 5.79576 13.6781 6.63939C13.4539 7.60354 13.0054 8.44718 12.557 9.29081C11.9965 10.1344 11.4359 10.8576 10.7632 11.5807C9.97846 12.3038 9.08158 12.7858 8.1847 13.1474C7.17571 13.509 6.05461 13.75 4.9335 13.75C3.13974 13.75 1.45808 13.1474 0.000648499 12.1833C0.224869 12.1833 0.449091 12.1833 0.785421 12.1833C2.24286 12.1833 3.70029 11.7012 4.82139 10.737C4.14873 10.737 3.47607 10.496 2.91551 10.0139C2.35496 9.53184 2.01863 9.04977 1.79441 8.32666C2.01863 8.32666 2.24285 8.32666 2.35496 8.32666C2.69129 8.32666 2.91552 8.32666 3.25185 8.20614C2.57919 8.08562 1.90652 7.60355 1.45808 7.00095C0.78542 6.39836 0.5612 5.67525 0.5612 4.83161C1.00964 5.07265 1.57019 5.19317 2.01863 5.31369C1.57019 4.95214 1.23386 4.59058 0.89753 4.1085C0.673309 3.62643 0.449089 3.02383 0.449089 2.42124C0.449089 1.81865 0.561199 1.21605 0.89753 0.733979C1.6823 1.81865 2.6913 2.66228 3.8124 3.26487C4.9335 3.86747 6.16672 4.22902 7.51204 4.34954C7.51204 4.1085 7.39993 3.86747 7.39993 3.50591C7.39993 2.7828 7.62415 2.1802 7.96048 1.57761C8.29681 0.975018 8.85736 0.613461 9.41791 0.251905C9.97847 0.0108675 10.6511 -0.109652 11.3238 0.131386C11.9964 0.251904 12.557 0.613462 13.0054 1.09554C13.6781 0.975018 14.4629 0.73398 15.0234 0.251905C14.7992 1.09554 14.2387 1.69813 13.566 2.1802C14.3508 2.05969 15.0234 1.93917 15.584 1.57761Z" fill="#081026"/>
</svg>
